{
    "asset" : {
        "generator" : "Khronos glTF Blender I/O v1.4.40",
        "version" : "2.0"
    },
    "scene" : 0,
    "scenes" : [
        {
            "name" : "Scene",
            "nodes" : [
                0
            ]
        }
    ],
    "nodes" : [
        {
            "mesh" : 0,
            "name" : "closed_coffin"
        }
    ],
    "materials" : [
        {
            "doubleSided" : true,
            "name" : "closed_coffin",
            "pbrMetallicRoughness" : {}
        }
    ],
    "meshes" : [
        {
            "name" : "closed_coffin",
            "primitives" : [
                {
                    "attributes" : {
                        "POSITION" : 0,
                        "NORMAL" : 1,
                        "TEXCOORD_0" : 2
                    },
                    "indices" : 3,
                    "material" : 0
                }
            ]
        }
    ],
    "accessors" : [
        {
            "bufferView" : 0,
            "componentType" : 5126,
            "count" : 8236,
            "max" : [
                35.52793884277344,
                100,
                49.999996185302734
            ],
            "min" : [
                -35.50689697265625,
                -100,
                0.000529562181327492
            ],
            "type" : "VEC3"
        },
        {
            "bufferView" : 1,
            "componentType" : 5126,
            "count" : 8236,
            "type" : "VEC3"
        },
        {
            "bufferView" : 2,
            "componentType" : 5126,
            "count" : 8236,
            "type" : "VEC2"
        },
        {
            "bufferView" : 3,
            "componentType" : 5123,
            "count" : 33156,
            "type" : "SCALAR"
        }
    ],
    "bufferViews" : [
        {
            "buffer" : 0,
            "byteLength" : 98832,
            "byteOffset" : 0
        },
        {
            "buffer" : 0,
            "byteLength" : 98832,
            "byteOffset" : 98832
        },
        {
            "buffer" : 0,
            "byteLength" : 65888,
            "byteOffset" : 197664
        },
        {
            "buffer" : 0,
            "byteLength" : 66312,
            "byteOffset" : 263552
        }
    ],
    "buffers" : [
        {
            "byteLength" : 329864,
            "uri" : "data:application/octet-stream;base64,"
        }
    ]
}
